<?xml version="1.0" encoding="utf-8"?>
<!DOCTYPE svg PUBLIC "-//W3C//DTD SVG 1.1//EN" "http://www.w3.org/Graphics/SVG/1.1/DTD/svg11.dtd"><svg version="1.1" id="Camada_1" xmlns="http://www.w3.org/2000/svg" xmlns:xlink="http://www.w3.org/1999/xlink" x="0px" y="0px" width="701.54px" height="105.84px" viewBox="0 0 701.54 105.84" style="enable-background:new 0 0 701.54 105.84;" xml:space="preserve"><style type="text/css">
<![CDATA[
.st0, .st1, .st4{fill:none;stroke:#333333;stroke-width:2.0352;stroke-miterlimit:10;} .st0{fill:#FF0066;} .st2{enable-background:new;} .st3{fill:#333333;} .st4{fill:#CCFF00;}
]]>
</style><g> <path class="st3" d="M26.6,77.36c0-3.99-1.32-5.48-9.86-7.67C8.6,67.58,3.13,64.91,3.13,57.71c0-6.97,6.34-11.42,15.96-11.42 c5.95,0,10.72,1.79,14.32,4.38l-3.21,4.85C27.16,53.33,23.71,52,19.25,52c-6.42,0-8.69,1.96-8.69,5.24c0,3.44,2.5,4.7,10.57,6.97 c7.91,2.19,13.23,4.62,13.23,12.59c0,9-8.61,12.6-17.61,12.6C9.15,89.41,3.6,86.9,0,83.77l4-4.54c3.2,2.66,7.89,4.38,12.75,4.38 C22.86,83.61,26.6,81.19,26.6,77.36z"/> <path class="st3" d="M64.79,46.29c11.74,0,17.93,8.45,17.93,21.52c0,12.75-6.35,21.6-18,21.6c-11.74,0-18-8.45-18-21.52 C46.71,55.13,53.06,46.29,64.79,46.29z M64.79,52.08c-6.88,0-10.41,5-10.41,15.81c0,10.72,3.44,15.73,10.33,15.73 s10.33-5,10.33-15.8C75.05,57.08,71.6,52.08,64.79,52.08z"/> <path class="st3" d="M130.89,32.04l-2.27,5.24c-2.66-1.18-5.71-1.72-8.84-1.72c-5.63,0-8.45,2.19-8.45,6.73v8.06h13.92l-0.78,5.56 h-13.14v32.56h-7.21V55.91h-9.71v-5.56h9.71v-7.98c0-7.67,6.42-12.61,15.26-12.61C124,29.77,127.6,30.63,130.89,32.04z"/> <path class="st3" d="M220.97,88.47h-9.79l-5.08-29.19h-0.31l-5.33,29.19h-9.55l-7.36-41.25h7.2l5.01,35.76h0.32l6.02-30.51h8.07 l5.63,30.37h0.32l5.01-35.62h6.88L220.97,88.47z"/> <path class="st3" d="M269.62,79.15c0,3.29,1.02,4.54,3.29,5.24l-1.72,5.01c-3.68-0.47-6.58-2.11-7.83-5.79 c-2.89,3.91-7.98,5.79-12.98,5.79c-8.3,0-13.62-5.09-13.62-12.75c0-8.54,7.12-13.3,19.64-13.3h6.03v-3.21 c0-5.79-3.61-7.98-9.63-7.98c-2.74,0-6.58,0.63-10.8,2.11l-1.88-5.32c5.09-1.88,9.71-2.66,13.78-2.66 c10.49,0,15.73,5.08,15.73,13.46L269.62,79.15L269.62,79.15z M262.42,78.3V68.12h-5.64c-8.84,0-12.13,3.21-12.13,8.22 c0,5.09,2.51,7.67,7.68,7.67C256.23,84.01,260.07,81.89,262.42,78.3z"/> <path class="st3" d="M312.99,88.47h-28.17v-5.56h9.47V52.78h-9.47v-5.56h15.73l0.86,7.91c2.34-5.79,6.89-8.84,11.74-8.84 c1.96,0,3.13,0.15,5.48,0.62l-1.33,7.13c-2.03-0.55-3.29-0.71-5.01-0.71c-5.16,0-9.39,5.24-10.8,10.95v18.63h11.5L312.99,88.47 L312.99,88.47z"/> <path class="st3" d="M336.72,70.31c0.63,9.15,5.56,13.22,11.82,13.22c3.75,0,7.43-0.95,10.96-3.84l3.28,4.78 c-3.84,3.04-9.07,4.93-14.4,4.93c-12.28,0-19.17-8.69-19.17-21.52c0-12.44,7.04-21.59,17.99-21.59c10.81,0,17.3,7.75,17.3,20.34 c0,1.41-0.07,2.74-0.16,3.68H336.72z M336.72,64.99h20.82c-0.15-8.54-3.91-13-10.33-13C341.57,52,337.27,56.15,336.72,64.99z"/> <path class="st3" d="M392.6,85.49v19.02l-12.52,1.33V46.91h11.12l0.54,4.62c3.37-4.31,7.6-6.03,11.51-6.03 c10.8,0,15.19,8.54,15.19,22.07c0,12.83-5.87,22.22-15.96,22.22C398.39,89.79,395.11,88.39,392.6,85.49z M405.51,67.72 c0-10.33-2.35-12.99-6.34-12.99c-2.66,0-4.77,1.8-6.57,4.78v17.45c1.72,2.5,3.36,3.68,5.95,3.68 C402.93,80.64,405.51,77.04,405.51,67.72z"/> <path class="st3" d="M439.82,46.91v28.41c0,3.99,1.57,5.24,4.16,5.24c2.5,0,5.24-1.72,6.96-4.46V46.9h12.51v41.56H452.5l-0.55-4.86 c-2.82,4.07-7.75,6.18-12.75,6.18c-8.07,0-11.9-5.01-11.9-12.91V46.91H439.82z M434.73,34.54l16.83-11.27l5.55,9.31l-18.62,8.29 L434.73,34.54z"/> <path class="st3" d="M489.99,51.14c2.59-3.45,6.5-5.64,10.57-5.64c10.8,0,15.41,8.54,15.41,22.07c0,12.83-5.86,22.22-16.66,22.22 c-4.15,0-7.82-1.79-10.25-5.08l-0.47,3.76h-11.12V30.4l12.52-1.33V51.14L489.99,51.14z M503.07,67.72 c0-10.33-2.58-12.99-6.51-12.99c-2.66,0-4.77,1.8-6.57,4.78v17.45c1.57,2.43,3.37,3.75,5.95,3.75 C500.33,80.71,503.07,77.04,503.07,67.72z"/> <path class="st3" d="M544.64,75.4c0,3.28,2.03,4.54,5.32,4.54c2.11,0,4.15-0.54,5.87-1.26l2.97,8.37 c-2.81,1.49-6.73,2.74-12.05,2.74c-10.25,0-14.63-6.26-14.63-16.04V38.93h-12.21V30.4h24.73V75.4L544.64,75.4z"/> <path class="st3" d="M605.73,88.47H570.9v-8.54h11.73v-24.5h-11.34V46.9h23.88v33.03h10.56L605.73,88.47L605.73,88.47z M581.47,32.12c0-3.99,3.13-7.04,7.43-7.04c4.31,0,7.44,3.05,7.44,7.04c0,3.99-3.13,7.04-7.44,7.04 C584.6,39.16,581.47,36.1,581.47,32.12z"/> <path class="st3" d="M647.05,76.8l5.64,7.98c-3.92,3.13-9.31,5.01-15.42,5.01c-13.54,0-21.59-8.83-21.59-21.83 s8.37-22.46,21.75-22.46c6.34,0,11.26,1.88,15.26,5.24l-5.4,7.52c-2.81-2.2-6.18-3.13-9.08-3.13c-5.55,0-9.39,3.52-9.39,12.84 c0,9.15,4.15,11.97,9.39,11.97C641.04,79.94,644.16,79,647.05,76.8z"/> <path class="st3" d="M701.53,67.58c0,13.92-7.52,22.22-20.26,22.22c-12.76,0-20.28-8.13-20.28-22.14 c0-13.23,7.53-22.15,20.28-22.15C694.1,45.5,701.53,54.26,701.53,67.58z M673.91,67.65c0,9.15,2.34,12.99,7.36,12.99 c5,0,7.35-3.84,7.35-13.06c0-8.93-2.34-12.84-7.35-12.84C676.25,54.73,673.91,58.65,673.91,67.65z"/> <path class="st3" d="M171.03,86.36c-2.89,1.87-7.28,3.05-11.35,3.05c-9.07,0-14.08-5.24-14.08-12.75V55.95h-9.4v-5.48h9.4V37.91 l7.2-0.86v13.42h14.17l-0.86,5.48h-13.3v20.62c0,4.62,2.19,6.89,7.67,6.89c3.05,0,5.72-0.78,7.83-2.04L171.03,86.36z"/></g><g> <g> <g> <line class="st1" x1="682.81" y1="23.09" x2="631.07" y2="14.58"/> <line class="st1" x1="590.58" y1="31.59" x2="631.07" y2="14.58"/> </g> </g> <g> <path class="st0" d="M690.58,23.09c0,4.3-3.53,7.77-7.77,7.77c-4.23,0-7.77-3.47-7.77-7.77c0-4.3,3.54-7.77,7.77-7.77 C687.05,15.31,690.58,18.78,690.58,23.09z"/> <path class="st4" d="M642.85,14.58c0,6.52-5.37,11.79-11.78,11.79s-11.79-5.26-11.79-11.79c0-6.52,5.37-11.78,11.79-11.78 S642.85,8.06,642.85,14.58z"/> </g></g><g class="st2"> <path class="st3" d="M9.81,22.41c1.28-1.72,3.02-2.69,5.04-2.69c4.74,0,6.66,3.66,6.66,9.21c0,5.38-2.45,9.24-7.02,9.24 c-2.05,0-3.63-0.67-4.81-2.22l-0.2,1.85H7.02V12.96l2.79-0.34V22.41z M18.45,28.93c0-4.64-1.45-6.96-4.2-6.96 c-1.98,0-3.5,1.44-4.44,2.86v8.81c0.94,1.41,2.39,2.28,4.03,2.28C16.8,35.92,18.45,33.67,18.45,28.93z"/> <path class="st3" d="M29.38,29.94c0.13,4.14,2.45,5.92,5.18,5.92c1.61,0,3.19-0.4,4.74-1.65l1.31,1.92 c-1.65,1.28-3.87,2.05-6.05,2.05c-5.18,0-8.1-3.7-8.1-9.21c0-5.34,3.02-9.24,7.6-9.24c4.57,0,7.29,3.33,7.29,8.71 c0,0.61-0.03,1.14-0.07,1.51L29.38,29.94L29.38,29.94z M29.38,27.79h9.28c-0.07-3.8-1.78-5.75-4.57-5.75 C31.56,22.04,29.61,23.89,29.38,27.79z"/> <path class="st3" d="M61.38,36.93c-1.21,0.77-3.09,1.24-4.74,1.24c-3.77,0-5.92-2.19-5.92-5.31V22.27h-4.07v-2.15h4.07v-4.03 l2.79-0.34v4.37h6.12l-0.34,2.15h-5.78v10.56c0,1.98,0.94,3.02,3.4,3.02c1.31,0,2.42-0.34,3.4-0.84L61.38,36.93z"/> <path class="st3" d="M80.17,33.97c0,1.41,0.47,1.95,1.45,2.25l-0.67,1.98c-1.51-0.2-2.72-0.94-3.23-2.52 c-1.28,1.65-3.26,2.49-5.55,2.49c-3.56,0-5.71-2.15-5.71-5.45c0-3.63,2.93-5.68,8.3-5.68h2.59v-1.48c0-2.55-1.58-3.49-4.2-3.49 c-1.18,0-2.79,0.23-4.6,0.87l-0.74-2.09c2.15-0.81,4.03-1.14,5.75-1.14c4.4,0,6.62,2.22,6.62,5.71V33.97z M77.35,33.54v-4.57H74.8 c-3.93,0-5.34,1.45-5.34,3.73c0,2.22,1.11,3.36,3.43,3.36C74.63,36.06,76.31,35.15,77.35,33.54z"/></g></svg>