<?xml version="1.0" encoding="utf-8"?>
<!-- Generator: Adobe Illustrator 15.0.0, SVG Export Plug-In . SVG Version: 6.00 Build 0)  -->
<!DOCTYPE svg PUBLIC "-//W3C//DTD SVG 1.1//EN" "http://www.w3.org/Graphics/SVG/1.1/DTD/svg11.dtd">
<svg version="1.1" id="Layer_1" xmlns="http://www.w3.org/2000/svg" xmlns:xlink="http://www.w3.org/1999/xlink" x="0px" y="0px"
     width="752.21px" height="105px" viewBox="0 0 752.21 105" enable-background="new 0 0 752.21 105" xml:space="preserve">
<line fill="none" stroke="#333333" stroke-width="2.0352" stroke-miterlimit="10" x1="683.019" y1="21.68" x2="718.041" y2="21.64"/>
<line fill="none" stroke="#333333" stroke-width="2.0352" stroke-miterlimit="10" x1="682.81" y1="21.83" x2="631.08" y2="13.32"/>
<line fill="none" stroke="#333333" stroke-width="2.0352" stroke-miterlimit="10" x1="590.589" y1="30.33" x2="631.08" y2="13.32"/>
<path fill="#FF0066" stroke="#333333" stroke-width="2.0352" stroke-miterlimit="10" d="M690.58,21.83c0,4.3-3.529,7.77-7.77,7.77
    c-4.23,0-7.77-3.47-7.77-7.77s3.539-7.77,7.77-7.77C687.05,14.06,690.58,17.53,690.58,21.83z"/>
<path fill="#CCFF00" stroke="#333333" stroke-width="2.0352" stroke-miterlimit="10" d="M642.861,13.32
    c0,6.52-5.371,11.79-11.781,11.79s-11.789-5.26-11.789-11.79c0-6.52,5.369-11.78,11.789-11.78
    C637.49,1.54,642.861,6.8,642.861,13.32z"/>
<path d="M26.6,76.141c0-3.99-1.32-5.48-9.86-7.671c-8.13-2.11-13.61-4.78-13.61-11.97c0-6.97,6.34-11.42,15.96-11.42
    c5.95,0,10.72,1.79,14.32,4.38l-3.21,4.851c-3.05-2.19-6.49-3.521-10.95-3.521c-6.42,0-8.7,1.96-8.7,5.24
    c0,3.439,2.5,4.7,10.57,6.97c7.91,2.189,13.22,4.62,13.22,12.59c0,9-8.61,12.6-17.61,12.6c-7.59,0-13.14-2.5-16.74-5.629l4-4.541
    C7.2,80.68,11.88,82.4,16.74,82.4C22.86,82.4,26.6,79.97,26.6,76.141z"/>
<path d="M64.79,45.08c11.74,0,17.93,8.45,17.93,21.52c0,12.75-6.35,21.601-18,21.601c-11.75,0-18.01-8.45-18.01-21.521
    C46.71,53.91,53.06,45.08,64.79,45.08z M64.79,50.86c-6.88,0-10.41,5-10.41,15.81c0,10.721,3.44,15.73,10.33,15.73
    s10.33-5,10.33-15.801C75.05,55.859,71.6,50.86,64.79,50.86z"/>
<path d="M130.89,30.83l-2.27,5.24c-2.66-1.18-5.71-1.72-8.84-1.72c-5.63,0-8.45,2.19-8.45,6.73v8.06h13.92l-0.78,5.56h-13.14v32.56
    h-7.21V54.7h-9.71v-5.56h9.71v-7.98c0-7.67,6.42-12.61,15.26-12.61C124,28.55,127.6,29.42,130.89,30.83z"/>
<path d="M220.97,87.26h-9.79L206.1,58.07h-0.31l-5.33,29.189h-9.55l-7.36-41.25h7.2l5.01,35.76h0.32l6.02-30.51h8.07l5.63,30.37
    h0.32l5.01-35.62h6.88L220.97,87.26z"/>
<path d="M269.62,77.939c0,3.291,1.01,4.541,3.29,5.24l-1.72,5.01c-3.68-0.47-6.58-2.109-7.83-5.789
    c-2.89,3.91-7.98,5.789-12.98,5.789c-8.3,0-13.62-5.09-13.62-12.75c0-8.539,7.12-13.299,19.64-13.299h6.03V58.93
    c0-5.789-3.61-7.979-9.63-7.979c-2.74,0-6.58,0.63-10.8,2.11l-1.88-5.32c5.09-1.88,9.71-2.66,13.78-2.66
    c10.49,0,15.73,5.08,15.73,13.46v19.399H269.62z M262.42,77.08V66.9h-5.64c-8.84,0-12.13,3.209-12.13,8.22
    c0,5.09,2.51,7.67,7.68,7.67C256.23,82.79,260.07,80.68,262.42,77.08z"/>
<path d="M313,87.26h-28.17V81.7h9.47V51.57h-9.47v-5.56h15.729l0.86,7.91c2.35-5.79,6.89-8.84,11.74-8.84
    c1.96,0,3.13,0.15,5.479,0.62l-1.33,7.13c-2.029-0.55-3.29-0.71-5.01-0.71c-5.16,0-9.39,5.239-10.8,10.95V81.7H313V87.26z"/>
<path d="M336.72,69.1c0.63,9.15,5.55,13.221,11.82,13.221c3.75,0,7.43-0.95,10.96-3.84l3.28,4.779c-3.84,3.04-9.07,4.93-14.4,4.93
    c-12.28,0-19.17-8.689-19.17-21.52c0-12.439,7.04-21.59,17.99-21.59c10.81,0,17.3,7.75,17.3,20.34c0,1.41-0.07,2.74-0.16,3.68
    H336.72z M336.72,63.78h20.82c-0.15-8.54-3.91-13-10.33-13C341.57,50.78,337.27,54.93,336.72,63.78z"/>
<path d="M392.611,84.28v19.02l-12.521,1.33V45.69h11.121l0.539,4.62c3.371-4.31,7.6-6.03,11.51-6.03
    c10.801,0,15.191,8.54,15.191,22.069c0,12.83-5.871,22.221-15.961,22.221C398.39,88.58,395.111,87.17,392.611,84.28z M405.509,66.51
    c0-10.33-2.35-12.99-6.34-12.99c-2.66,0-4.779,1.801-6.57,4.78v17.45c1.721,2.5,3.361,3.68,5.951,3.68
    C402.929,79.43,405.509,75.83,405.509,66.51z"/>
<path d="M439.82,45.69V74.1c0,3.99,1.57,5.24,4.16,5.24c2.5,0,5.24-1.72,6.961-4.46v-29.2h12.51v41.56H452.5l-0.549-4.86
    c-2.82,4.07-7.75,6.181-12.75,6.181c-8.07,0-11.9-5.011-11.9-12.91V45.69H439.82z M434.73,33.33l16.83-11.27l5.551,9.31
    l-18.621,8.29L434.73,33.33z"/>
<path d="M489.99,49.93c2.59-3.45,6.5-5.64,10.57-5.64c10.801,0,15.41,8.54,15.41,22.069c0,12.83-5.859,22.221-16.66,22.221
    c-4.15,0-7.82-1.79-10.25-5.08l-0.471,3.76H477.47V29.19l12.52-1.33V49.93L489.99,49.93z M503.07,66.51
    c0-10.33-2.58-12.99-6.51-12.99c-2.66,0-4.77,1.801-6.57,4.78v17.45c1.57,2.43,3.371,3.75,5.951,3.75
    C500.33,79.5,503.07,75.83,503.07,66.51z"/>
<path d="M544.64,74.18c0,3.28,2.029,4.54,5.32,4.54c2.109,0,4.15-0.54,5.869-1.26l2.971,8.37c-2.811,1.49-6.73,2.74-12.051,2.74
    c-10.25,0-14.629-6.26-14.629-16.04V37.71H519.91v-8.53h24.73V74.18L544.64,74.18z"/>
<path d="M605.73,87.26H570.9v-8.54h11.73v-24.5h-11.34v-8.53h23.879v33.03h10.561V87.26z M581.47,30.9c0-3.99,3.129-7.04,7.43-7.04
    c4.311,0,7.439,3.05,7.439,7.04c0,3.99-3.129,7.04-7.439,7.04C584.599,37.95,581.47,34.89,581.47,30.9z"/>
<path d="M647.05,75.59l5.641,7.98c-3.922,3.13-9.311,5.01-15.422,5.01c-13.539,0-21.59-8.83-21.59-21.83s8.371-22.46,21.75-22.46
    c6.34,0,11.262,1.88,15.262,5.24l-5.4,7.52c-2.811-2.2-6.18-3.13-9.08-3.13c-5.551,0-9.391,3.52-9.391,12.84
    c0,9.15,4.15,11.971,9.391,11.971C641.041,78.72,644.16,77.79,647.05,75.59z"/>
<path d="M701.541,66.359c0,13.921-7.521,22.221-20.26,22.221C668.519,88.58,661,80.45,661,66.439
    c0-13.229,7.531-22.149,20.281-22.149C694.099,44.29,701.541,53.05,701.541,66.359z M673.91,66.439c0,9.15,2.34,12.99,7.359,12.99
    c5,0,7.352-3.84,7.352-13.06c0-8.931-2.34-12.84-7.352-12.84C676.25,53.52,673.91,57.439,673.91,66.439z"/>
<path d="M171.03,85.141c-2.89,1.869-7.28,3.049-11.35,3.049c-9.08,0-14.08-5.239-14.08-12.75V54.73h-9.4v-5.48h9.4V36.7l7.2-0.86
    v13.42h14.17l-0.87,5.48h-13.3v20.619c0,4.621,2.19,6.891,7.67,6.891c3.05,0,5.72-0.78,7.83-2.04L171.03,85.141z"/>
<path d="M737.871,31.54v-9.3h-2.631c-0.76,0-1.35,0.1-1.779,0.31c-0.42,0.21-0.861,0.6-1.311,1.2c-0.449,0.59-1.119,1.74-2.01,3.45
    l-2.291,4.36h-2.859l3-5.7c0.51-0.98,1.109-1.87,1.791-2.67c0.33-0.39,0.818-0.78,1.459-1.16c-1.57-0.271-2.77-0.89-3.59-1.87
    s-1.24-2.26-1.24-3.84c0-1.2,0.24-2.25,0.73-3.16c0.49-0.91,1.109-1.56,1.869-1.95s1.93-0.59,3.521-0.59h7.619v20.95h-2.279V31.54z
     M737.871,12.91h-5.43c-1.221,0-2.141,0.3-2.762,0.91c-0.619,0.61-0.93,1.44-0.93,2.49c0,0.73,0.16,1.38,0.49,1.93
    c0.32,0.55,0.76,0.96,1.311,1.21c0.549,0.26,1.359,0.39,2.43,0.39h4.891V12.91z"/>
<path d="M734.191,4.02c-9.691,0-17.541,7.85-17.541,17.54s7.85,17.54,17.541,17.54c9.689,0,17.539-7.85,17.539-17.54
    S743.88,4.02,734.191,4.02z M734.191,36.47c-8.24,0-14.922-6.68-14.922-14.92c0-8.24,6.682-14.92,14.922-14.92
    c8.238,0,14.92,6.68,14.92,14.92C749.111,29.8,742.429,36.47,734.191,36.47z"/>
</svg>
