<?xml version="1.0" encoding="utf-8"?>
<!-- Generator: Adobe Illustrator 16.0.0, SVG Export Plug-In . SVG Version: 6.00 Build 0)  -->
<!DOCTYPE svg PUBLIC "-//W3C//DTD SVG 1.1//EN" "http://www.w3.org/Graphics/SVG/1.1/DTD/svg11.dtd">
<svg version="1.1" id="Camada_1" xmlns="http://www.w3.org/2000/svg" xmlns:xlink="http://www.w3.org/1999/xlink" x="0px" y="0px"
	 width="926px" height="173px" viewBox="0 0 926 173" enable-background="new 0 0 926 173" xml:space="preserve">
<g>
	<path fill="#313131" d="M27.262,126.58c0-4.023-1.335-5.523-9.938-7.73c-8.201-2.129-13.718-4.812-13.718-12.07
		c0-7.02,6.39-11.51,16.088-11.51c5.997,0,10.803,1.812,14.431,4.418l-3.232,4.888c-3.072-2.207-6.545-3.55-11.036-3.55
		c-6.466,0-8.763,1.975-8.763,5.283c0,3.469,2.523,4.733,10.65,7.022c7.967,2.207,13.326,4.655,13.326,12.692
		c0,9.074-8.673,12.701-17.746,12.701c-7.647,0-13.246-2.521-16.874-5.681l4.026-4.571c3.229,2.678,7.955,4.409,12.847,4.409
		C23.487,132.883,27.262,130.439,27.262,126.58z"/>
	<path fill="#313131" d="M65.747,95.27c11.829,0,18.065,8.515,18.065,21.688c0,12.853-6.396,21.769-18.144,21.769
		c-11.834,0-18.145-8.517-18.145-21.688C47.523,104.178,53.92,95.27,65.747,95.27z M65.747,101.104
		c-6.936,0-10.489,5.043-10.489,15.934c0,10.805,3.468,15.848,10.41,15.848s10.417-5.043,10.417-15.926
		C76.084,106.146,72.61,101.104,65.747,101.104z"/>
	<path fill="#313131" d="M132.358,80.912l-2.289,5.279c-2.683-1.185-5.758-1.731-8.913-1.731c-5.678,0-8.514,2.206-8.514,6.783
		v8.126h14.033l-0.79,5.602h-13.243v32.812h-7.261v-32.812h-9.784v-5.602h9.784v-8.046c0-7.728,6.464-12.703,15.376-12.703
		C125.417,78.62,129.043,79.491,132.358,80.912z"/>
	<path fill="#313131" d="M223.146,137.781h-9.864l-5.125-29.42h-0.313l-5.365,29.42h-9.624l-7.415-41.57h7.261l5.045,36.044h0.319
		l6.072-30.755h8.126l5.672,30.604h0.319l5.052-35.893h6.935L223.146,137.781z"/>
	<path fill="#313131" d="M272.171,128.395c0,3.312,1.025,4.571,3.312,5.281l-1.734,5.049c-3.707-0.477-6.629-2.132-7.894-5.842
		c-2.915,3.944-8.044,5.842-13.086,5.842c-8.363,0-13.725-5.125-13.725-12.854c0-8.6,7.182-13.41,19.796-13.41h6.077v-3.232
		c0-5.836-3.634-8.049-9.708-8.049c-2.759,0-6.626,0.637-10.886,2.127l-1.891-5.354c5.129-1.896,9.784-2.684,13.885-2.684
		c10.569,0,15.854,5.125,15.854,13.565V128.395L272.171,128.395z M264.916,127.531v-10.26h-5.687
		c-8.909,0-12.224,3.232-12.224,8.274c0,5.129,2.529,7.731,7.734,7.731C258.681,133.281,262.547,131.148,264.916,127.531z"/>
	<path fill="#313131" d="M315.887,137.781h-28.389v-5.602h9.545v-30.365h-9.545V96.21h15.854l0.866,7.967
		c2.363-5.839,6.943-8.907,11.829-8.907c1.974,0,3.155,0.154,5.523,0.625l-1.343,7.186c-2.051-0.557-3.315-0.715-5.052-0.715
		c-5.199,0-9.458,5.283-10.879,11.039v18.775h11.592L315.887,137.781L315.887,137.781z"/>
	<path fill="#313131" d="M339.801,119.48c0.632,9.225,5.598,13.328,11.911,13.328c3.784,0,7.492-0.951,11.045-3.867l3.309,4.814
		c-3.867,3.069-9.146,4.967-14.517,4.967c-12.377,0-19.317-8.757-19.317-21.688c0-12.541,7.096-21.767,18.133-21.767
		c10.889,0,17.432,7.812,17.432,20.504c0,1.424-0.074,2.763-0.16,3.707h-27.836V119.48z M339.801,114.119h20.979
		c-0.153-8.6-3.94-13.096-10.416-13.096C344.687,101.023,340.353,105.203,339.801,114.119z"/>
	<path fill="#313131" d="M396.117,134.779v19.166l-12.619,1.338V95.896h11.201l0.547,4.653c3.394-4.34,7.654-6.071,11.595-6.071
		c10.882,0,15.307,8.603,15.307,22.242c0,12.938-5.922,22.395-16.089,22.395C401.955,139.114,398.641,137.697,396.117,134.779z
		 M409.13,116.875c0-10.414-2.37-13.092-6.39-13.092c-2.684,0-4.812,1.811-6.623,4.812v17.588c1.729,2.521,3.392,3.707,5.997,3.707
		C406.527,129.891,409.13,126.26,409.13,116.875z"/>
	<path fill="#313131" d="M443.699,95.896v28.633c0,4.021,1.579,5.279,4.187,5.279c2.523,0,5.285-1.731,7.021-4.49V95.896h12.607
		v41.886h-11.036l-0.554-4.898c-2.838,4.104-7.812,6.231-12.852,6.231c-8.133,0-11.995-5.047-11.995-13.012V95.896H443.699z
		 M438.575,83.435l16.959-11.358l5.598,9.389l-18.77,8.359L438.575,83.435z"/>
	<path fill="#313131" d="M494.265,100.161c2.609-3.474,6.552-5.685,10.649-5.685c10.883,0,15.536,8.604,15.536,22.244
		c0,12.938-5.91,22.394-16.793,22.394c-4.188,0-7.888-1.806-10.331-5.121l-0.47,3.788h-11.208V79.258l12.614-1.338L494.265,100.161
		L494.265,100.161z M507.444,116.875c0-10.414-2.604-13.092-6.559-13.092c-2.676,0-4.803,1.811-6.623,4.812v17.588
		c1.585,2.447,3.396,3.782,5.998,3.782C504.682,129.968,507.444,126.26,507.444,116.875z"/>
	<path fill="#313131" d="M549.342,124.605c0,3.312,2.045,4.57,5.366,4.57c2.122,0,4.179-0.545,5.913-1.26l2.992,8.438
		c-2.835,1.504-6.783,2.761-12.146,2.761c-10.333,0-14.746-6.306-14.746-16.163v-35.1h-12.307v-8.595h24.926L549.342,124.605
		L549.342,124.605z"/>
	<path fill="#313131" d="M610.907,137.781H575.81v-8.604h11.825v-24.684h-11.432v-8.599h24.062v33.28h10.645L610.907,137.781
		L610.907,137.781z M586.46,80.99c0-4.021,3.154-7.099,7.491-7.099c4.343,0,7.498,3.078,7.498,7.099
		c0,4.016-3.155,7.099-7.498,7.099C589.614,88.088,586.46,85.006,586.46,80.99z"/>
	<path fill="#313131" d="M652.555,126.023l5.685,8.043c-3.946,3.156-9.39,5.048-15.535,5.048c-13.651,0-21.766-8.905-21.766-21.999
		c0-13.096,8.434-22.639,21.927-22.639c6.382,0,11.348,1.895,15.374,5.281l-5.443,7.574c-2.837-2.214-6.225-3.156-9.146-3.156
		c-5.6,0-9.467,3.551-9.467,12.938c0,9.225,4.183,12.062,9.467,12.062C646.489,129.178,649.639,128.236,652.555,126.023z"/>
	<path fill="#313131" d="M707.459,116.721c0,14.036-7.574,22.396-20.424,22.396c-12.856,0-20.438-8.198-20.438-22.315
		c0-13.332,7.58-22.32,20.438-22.32C699.965,94.479,707.459,103.307,707.459,116.721z M679.616,116.799
		c0,9.225,2.364,13.092,7.419,13.092c5.041,0,7.405-3.867,7.405-13.17c0-8.994-2.364-12.938-7.405-12.938
		C681.98,103.783,679.616,107.727,679.616,116.799z"/>
	<path fill="#313131" d="M172.814,135.652c-2.916,1.883-7.335,3.07-11.435,3.07c-9.145,0-14.195-5.281-14.195-12.854v-20.867h-9.474
		v-5.52h9.474V86.825l7.252-0.868v13.527h14.278l-0.872,5.519h-13.406v20.783c0,4.653,2.21,6.942,7.728,6.942
		c3.075,0,5.764-0.785,7.888-2.055L172.814,135.652z"/>
</g>
<path fill="none" stroke="#313131" stroke-width="1.0638" stroke-miterlimit="10" d="M799.07,71.692"/>
<polyline fill="none" stroke="#313131" stroke-width="1.0638" stroke-miterlimit="10" points="863.27,164.414 852.696,99.584 
	755.495,130.701 731.674,71.57 731.421,8.501 "/>
<line fill="none" stroke="#313131" stroke-width="1.0638" stroke-miterlimit="10" x1="852.696" y1="99.584" x2="917.031" y2="89.54"/>
<line fill="none" stroke="#313131" stroke-width="1.0638" stroke-miterlimit="10" x1="688.793" y1="71.735" x2="799.07" y2="71.692"/>
<g>
	<g>
		
			<line fill="none" stroke="#403D39" stroke-width="1.0638" stroke-miterlimit="10" x1="688.585" y1="71.886" x2="636.447" y2="63.314"/>
		
			<line fill="none" stroke="#403D39" stroke-width="1.0638" stroke-miterlimit="10" x1="595.642" y1="80.458" x2="636.447" y2="63.314"/>
	</g>
</g>
<path fill="#448ECC" stroke="#313131" stroke-width="0.8097" stroke-miterlimit="10" d="M696.416,71.886
	c0,4.336-3.56,7.832-7.831,7.832c-4.267,0-7.833-3.496-7.833-7.832c0-4.337,3.566-7.832,7.833-7.832
	C692.856,64.054,696.416,67.549,696.416,71.886z"/>
<path fill="#FFCC13" stroke="#313131" stroke-width="0.8097" stroke-miterlimit="10" d="M648.318,63.314
	c0,6.574-5.407,11.877-11.871,11.877c-6.462,0-11.877-5.303-11.877-11.877c0-6.57,5.415-11.87,11.877-11.87
	C642.911,51.444,648.318,56.744,648.318,63.314z"/>
<path fill="#FFCC13" stroke="#313131" stroke-width="0.8097" stroke-miterlimit="10" d="M863.065,101.419
	c0,6.575-5.407,11.874-11.871,11.874c-6.477,0-11.884-5.299-11.884-11.874c0-6.573,5.407-11.879,11.884-11.879
	C857.658,89.54,863.065,94.846,863.065,101.419z"/>
<path fill="#FFCC13" stroke="#313131" stroke-width="0.8097" stroke-miterlimit="10" d="M731.378,1.194
	c4.331,0,7.834,3.566,7.834,7.832c0,4.269-3.503,7.833-7.834,7.833c-4.339,0-7.831-3.564-7.831-7.833
	C723.547,4.76,727.039,1.194,731.378,1.194z"/>
<path fill="#FFCC13" stroke="#313131" stroke-width="0.8097" stroke-miterlimit="10" d="M863.065,156.58
	c4.331,0,7.824,3.562,7.824,7.834c0,4.268-3.493,7.833-7.824,7.833c-4.347,0-7.841-3.565-7.841-7.833
	C855.227,160.143,858.721,156.58,863.065,156.58z"/>
<path fill="#448ECC" stroke="#313131" stroke-width="1.0638" stroke-miterlimit="10" d="M916.828,81.71
	c4.335,0,7.833,3.566,7.833,7.83c0,4.274-3.498,7.838-7.833,7.838c-4.34,0-7.837-3.563-7.837-7.838
	C908.991,85.276,912.488,81.71,916.828,81.71z"/>
<path fill="#448ECC" stroke="#313131" stroke-width="0.8097" stroke-miterlimit="10" d="M798.865,54.23
	c9.773,0,17.652,8.04,17.652,17.656c0,9.618-7.879,17.653-17.652,17.653c-9.776,0-17.656-8.035-17.656-17.653
	C781.209,62.271,789.089,54.23,798.865,54.23z"/>
<path fill="#313131" stroke="#313131" stroke-width="1.0638" stroke-miterlimit="10" d="M755.201,122.988
	c4.327,0,7.832,3.566,7.832,7.836c0,4.262-3.505,7.832-7.832,7.832c-4.349,0-7.839-3.57-7.839-7.832
	C747.362,126.555,750.854,122.988,755.201,122.988z"/>
<path fill="#313131" stroke="#313131" stroke-width="1.0638" stroke-miterlimit="10" d="M731.378,63.778
	c4.331,0,7.834,3.569,7.834,7.832c0,4.266-3.503,7.832-7.834,7.832c-4.339,0-7.831-3.565-7.831-7.832
	C723.547,67.347,727.039,63.778,731.378,63.778z"/>
<rect id="_x3C_Fatia_x3E_" fill="none" width="926" height="173"/>
<text transform="matrix(1 0 0 1 -2.4688 78)" fill="#1D1D1B" font-family="'ArialMT'" font-size="33.5">BETA</text>
</svg>
