<?xml version="1.0" encoding="utf-8"?>
<!DOCTYPE svg PUBLIC "-//W3C//DTD SVG 1.1//EN" "http://www.w3.org/Graphics/SVG/1.1/DTD/svg11.dtd"><svg version="1.1" id="Camada_1" xmlns="http://www.w3.org/2000/svg" xmlns:xlink="http://www.w3.org/1999/xlink" x="0px" y="0px" width="918.07px" height="171.76px" viewBox="0 0 918.07 171.76" style="enable-background:new 0 0 918.07 171.76;" xml:space="preserve"><style type="text/css">
<![CDATA[
.st0, .st1, .st2, .st3, .st5 {fill:none;stroke:#FFFFFF;stroke-width:2.0352;stroke-miterlimit:10;} .st0, .st2, .st4, .st5{fill:#FFFFFF;}
]]>
</style><g> <path class="st4" d="M26.6,125.43c0-3.99-1.32-5.48-9.86-7.67c-8.14-2.11-13.61-4.78-13.61-11.98c0-6.97,6.34-11.42,15.96-11.42 c5.95,0,10.72,1.79,14.32,4.38l-3.21,4.85c-3.05-2.19-6.49-3.52-10.95-3.52c-6.42,0-8.69,1.96-8.69,5.24c0,3.44,2.5,4.7,10.57,6.97 c7.91,2.19,13.23,4.62,13.23,12.59c0,9-8.61,12.6-17.61,12.6c-7.59,0-13.14-2.5-16.74-5.63l4-4.54c3.21,2.66,7.89,4.38,12.75,4.38 C22.86,131.69,26.6,129.26,26.6,125.43z"/> <path class="st4" d="M64.79,94.36c11.74,0,17.93,8.45,17.93,21.52c0,12.75-6.35,21.6-18,21.6c-11.74,0-18-8.45-18-21.52 C46.71,103.2,53.06,94.36,64.79,94.36z M64.79,100.15c-6.88,0-10.41,5-10.41,15.81c0,10.72,3.44,15.73,10.33,15.73 s10.33-5,10.33-15.8C75.05,105.15,71.6,100.15,64.79,100.15z"/> <path class="st4" d="M130.89,80.12l-2.27,5.24c-2.66-1.18-5.71-1.72-8.84-1.72c-5.63,0-8.45,2.19-8.45,6.73v8.06h13.92l-0.78,5.56 h-13.14v32.56h-7.21v-32.56h-9.71v-5.56h9.71v-7.98c0-7.67,6.42-12.61,15.26-12.61C124,77.84,127.6,78.71,130.89,80.12z"/> <path class="st4" d="M220.97,136.55h-9.79l-5.08-29.19h-0.31l-5.33,29.19h-9.55l-7.36-41.25h7.21l5.01,35.76h0.32l6.02-30.51h8.06 l5.63,30.37h0.32l5.01-35.62h6.88L220.97,136.55z"/> <path class="st4" d="M269.62,127.23c0,3.29,1.01,4.54,3.28,5.24l-1.72,5.01c-3.68-0.47-6.58-2.11-7.83-5.79 c-2.89,3.91-7.98,5.79-12.98,5.79c-8.3,0-13.62-5.09-13.62-12.75c0-8.54,7.12-13.31,19.64-13.31h6.03v-3.21 c0-5.79-3.61-7.98-9.63-7.98c-2.74,0-6.58,0.63-10.8,2.11l-1.88-5.31c5.09-1.88,9.71-2.66,13.78-2.66 c10.49,0,15.73,5.08,15.73,13.46V127.23L269.62,127.23z M262.42,126.37v-10.18h-5.64c-8.84,0-12.13,3.21-12.13,8.22 c0,5.09,2.51,7.67,7.68,7.67C256.23,132.08,260.07,129.97,262.42,126.37z"/> <path class="st4" d="M313,136.55h-28.17v-5.56h9.47v-30.13h-9.47V95.3h15.73l0.86,7.91c2.34-5.79,6.89-8.84,11.74-8.84 c1.96,0,3.13,0.15,5.48,0.62l-1.33,7.13c-2.03-0.55-3.29-0.71-5.01-0.71c-5.16,0-9.39,5.24-10.79,10.95v18.63H313V136.55 L313,136.55z"/> <path class="st4" d="M336.72,118.39c0.63,9.15,5.56,13.22,11.82,13.22c3.75,0,7.43-0.95,10.96-3.84l3.28,4.78 c-3.84,3.05-9.07,4.93-14.4,4.93c-12.28,0-19.17-8.69-19.17-21.52c0-12.44,7.04-21.59,17.99-21.59c10.81,0,17.3,7.75,17.3,20.34 c0,1.41-0.07,2.74-0.16,3.68H336.72L336.72,118.39z M336.72,113.07h20.82c-0.15-8.54-3.91-13-10.33-13 C341.57,100.07,337.27,104.22,336.72,113.07z"/> <path class="st4" d="M392.61,133.57v19.02l-12.52,1.33V94.99h11.12l0.54,4.62c3.37-4.31,7.6-6.03,11.51-6.03 c10.8,0,15.19,8.54,15.19,22.07c0,12.83-5.88,22.22-15.96,22.22C398.39,137.87,395.11,136.46,392.61,133.57z M405.51,115.8 c0-10.33-2.35-12.99-6.34-12.99c-2.66,0-4.77,1.8-6.57,4.78v17.45c1.72,2.5,3.36,3.68,5.95,3.68 C402.93,128.72,405.51,125.12,405.51,115.8z"/> <path class="st4" d="M439.82,94.99v28.41c0,3.99,1.57,5.24,4.15,5.24c2.5,0,5.24-1.72,6.96-4.46v-29.2h12.51v41.56H452.5 l-0.55-4.86c-2.82,4.07-7.75,6.18-12.75,6.18c-8.07,0-11.9-5.01-11.9-12.91V94.99H439.82z M434.73,82.62l16.83-11.27l5.55,9.31 l-18.62,8.29L434.73,82.62z"/> <path class="st4" d="M489.99,99.22c2.59-3.45,6.5-5.64,10.57-5.64c10.8,0,15.41,8.54,15.41,22.07c0,12.83-5.86,22.22-16.66,22.22 c-4.15,0-7.82-1.79-10.25-5.08l-0.47,3.76h-11.12V78.48l12.52-1.33V99.22L489.99,99.22z M503.07,115.8 c0-10.33-2.58-12.99-6.5-12.99c-2.66,0-4.77,1.8-6.57,4.78v17.45c1.57,2.43,3.37,3.75,5.95,3.75 C500.33,128.79,503.07,125.12,503.07,115.8z"/> <path class="st4" d="M544.64,123.47c0,3.28,2.03,4.54,5.32,4.54c2.11,0,4.15-0.54,5.87-1.26l2.97,8.37 c-2.81,1.49-6.73,2.74-12.05,2.74c-10.25,0-14.63-6.26-14.63-16.04V87h-12.21v-8.52h24.73V123.47L544.64,123.47z"/> <path class="st4" d="M605.73,136.55h-34.82v-8.53h11.73v-24.5H571.3v-8.53h23.88v33.03h10.56L605.73,136.55L605.73,136.55z M581.47,80.19c0-3.99,3.13-7.04,7.43-7.04c4.31,0,7.44,3.05,7.44,7.04c0,3.99-3.13,7.04-7.44,7.04 C584.6,87.24,581.47,84.18,581.47,80.19z"/> <path class="st4" d="M647.05,124.88l5.64,7.98c-3.91,3.13-9.31,5.01-15.42,5.01c-13.54,0-21.6-8.83-21.6-21.83 s8.37-22.46,21.75-22.46c6.34,0,11.26,1.88,15.26,5.24l-5.4,7.52c-2.81-2.19-6.18-3.13-9.08-3.13c-5.56,0-9.39,3.52-9.39,12.84 c0,9.15,4.15,11.97,9.39,11.97C641.04,128.01,644.16,127.07,647.05,124.88z"/> <path class="st4" d="M701.54,115.65c0,13.92-7.52,22.22-20.27,22.22c-12.76,0-20.28-8.13-20.28-22.14 c0-13.23,7.52-22.15,20.28-22.15C694.1,93.58,701.54,102.34,701.54,115.65z M673.91,115.73c0,9.15,2.35,12.99,7.36,12.99 c5,0,7.35-3.84,7.35-13.06c0-8.93-2.34-12.84-7.35-12.84C676.25,102.81,673.91,106.73,673.91,115.73z"/> <path class="st4" d="M171.03,134.43c-2.89,1.87-7.28,3.05-11.35,3.05c-9.08,0-14.08-5.24-14.08-12.75v-20.71h-9.4v-5.48h9.4V85.99 l7.2-0.86v13.42h14.17l-0.86,5.48h-13.3v20.62c0,4.62,2.19,6.89,7.67,6.89c3.05,0,5.72-0.78,7.83-2.04L171.03,134.43z"/></g><g> <path class="st3" d="M792.44,70.97"/> <polyline class="st1" points="856.14,162.97 845.65,98.64 749.2,129.52 725.56,70.85 725.32,8.27 "/> <line class="st1" x1="845.65" y1="98.64" x2="909.48" y2="88.68"/> <line class="st1" x1="683.01" y1="71.01" x2="792.44" y2="70.97"/> <g> <g> <line class="st1" x1="682.81" y1="71.16" x2="631.08" y2="62.66"/> <line class="st1" x1="590.58" y1="79.67" x2="631.08" y2="62.66"/> </g> </g> <g> <path class="st0" d="M690.58,71.16c0,4.3-3.53,7.77-7.77,7.77c-4.23,0-7.77-3.47-7.77-7.77c0-4.3,3.54-7.77,7.77-7.77 C687.05,63.39,690.58,66.86,690.58,71.16z"/> <path class="st5" d="M642.85,62.66c0,6.52-5.37,11.78-11.78,11.78s-11.79-5.26-11.79-11.78s5.38-11.78,11.79-11.78 C637.49,50.88,642.85,56.14,642.85,62.66z"/> <path class="st5" d="M855.94,100.47c0,6.52-5.37,11.78-11.78,11.78c-6.43,0-11.79-5.26-11.79-11.78c0-6.52,5.37-11.79,11.79-11.79 C850.57,88.68,855.94,93.94,855.94,100.47z"/> <path class="st5" d="M725.27,1.02c4.3,0,7.77,3.54,7.77,7.77c0,4.24-3.47,7.77-7.77,7.77c-4.31,0-7.77-3.54-7.77-7.77 S720.96,1.02,725.27,1.02z"/> <path class="st5" d="M855.94,155.2c4.29,0,7.76,3.54,7.76,7.77c0,4.23-3.47,7.77-7.76,7.77c-4.32,0-7.78-3.54-7.78-7.77 C848.16,158.73,851.62,155.2,855.94,155.2z"/> <path class="st0" d="M909.28,80.91c4.3,0,7.77,3.54,7.77,7.77c0,4.24-3.47,7.78-7.77,7.78c-4.31,0-7.78-3.53-7.78-7.78 C901.51,84.45,904.98,80.91,909.28,80.91z"/> <path class="st0" d="M792.23,53.64c9.7,0,17.52,7.98,17.52,17.52s-7.82,17.52-17.52,17.52c-9.7,0-17.52-7.97-17.52-17.52 C774.72,61.62,782.53,53.64,792.23,53.64z"/> <path class="st2" d="M748.91,121.87c4.3,0,7.77,3.54,7.77,7.77c0,4.23-3.47,7.77-7.77,7.77c-4.31,0-7.78-3.54-7.78-7.77 C741.13,125.41,744.59,121.87,748.91,121.87z"/> <path class="st2" d="M725.27,63.12c4.3,0,7.77,3.54,7.77,7.77s-3.47,7.77-7.77,7.77c-4.31,0-7.77-3.54-7.77-7.77 S720.96,63.12,725.27,63.12z"/> </g></g></svg>