<?xml version="1.0" encoding="utf-8"?>
<!-- Generator: Adobe Illustrator 16.0.0, SVG Export Plug-In . SVG Version: 6.00 Build 0)  -->
<!DOCTYPE svg PUBLIC "-//W3C//DTD SVG 1.1//EN" "http://www.w3.org/Graphics/SVG/1.1/DTD/svg11.dtd">
<svg version="1.1" id="Camada_1" xmlns="http://www.w3.org/2000/svg" xmlns:xlink="http://www.w3.org/1999/xlink" x="0px" y="0px"
	 width="1713.775px" height="401.424px" viewBox="-108 76 1713.775 401.424" enable-background="new -108 76 1713.775 401.424"
	 xml:space="preserve">
<g>
	<path fill="#303031" d="M57.22,346.622c0-7.682-2.549-10.547-18.973-14.754c-15.656-4.066-26.186-9.193-26.186-23.051
		c0-13.4,12.188-21.973,30.709-21.973c11.449,0,20.625,3.456,27.551,8.432l-6.17,9.334c-5.865-4.219-12.498-6.779-21.07-6.779
		c-12.346,0-16.729,3.768-16.729,10.09c0,6.627,4.816,9.035,20.332,13.406c15.211,4.213,25.441,8.889,25.441,24.234
		c0,17.319-16.559,24.246-33.879,24.246c-14.602,0-25.289-4.812-32.215-10.84l7.688-8.73c6.164,5.109,15.188,8.42,24.527,8.42
		C50.013,358.657,57.22,353.993,57.22,346.622z"/>
	<path fill="#303031" d="M130.696,286.844c22.582,0,34.488,16.255,34.488,41.402c0,24.545-12.211,41.562-34.641,41.562
		c-22.588,0-34.641-16.254-34.641-41.402C95.903,303.854,108.114,286.844,130.696,286.844z M130.696,297.989
		c-13.242,0-20.027,9.627-20.027,30.416c0,20.631,6.621,30.252,19.875,30.252s19.887-9.621,19.887-30.41
		C150.431,307.616,143.798,297.989,130.696,297.989z"/>
	<path fill="#303031" d="M257.868,259.435l-4.371,10.077c-5.121-2.256-10.992-3.299-17.016-3.299
		c-10.84,0-16.254,4.207-16.254,12.943v15.516h26.789l-1.506,10.699h-25.283v62.637h-13.863v-62.637h-18.68v-10.699h18.68v-15.356
		c0-14.767,12.34-24.252,29.355-24.252C244.614,255.063,251.54,256.728,257.868,259.435z"/>
	<path fill="#303031" d="M431.2,368.008h-18.832l-9.785-56.168h-0.598l-10.242,56.168h-18.375l-14.156-79.364h13.863l9.633,68.812
		h0.609l11.59-58.718h15.516l10.834,58.431h0.604l9.645-68.524h13.242L431.2,368.008z"/>
	<path fill="#303031" d="M524.798,350.09c0,6.316,1.957,8.729,6.322,10.084l-3.312,9.634c-7.077-0.902-12.649-4.066-15.069-11.15
		c-5.566,7.529-15.357,11.15-24.984,11.15c-15.967,0-26.197-9.785-26.197-24.539c0-16.418,13.705-25.601,37.787-25.601h11.603
		v-6.176c0-11.146-6.938-15.363-18.533-15.363c-5.268,0-12.65,1.213-20.783,4.062l-3.608-10.226
		c9.79-3.621,18.68-5.121,26.508-5.121c20.18,0,30.27,9.785,30.27,25.898v37.348H524.798z M510.946,348.438v-19.588h-10.857
		c-17.01,0-23.338,6.176-23.338,15.803c0,9.797,4.828,14.766,14.766,14.766C499.04,359.418,506.423,355.347,510.946,348.438z"/>
	<path fill="#303031" d="M608.259,368.008H554.06v-10.692h18.224v-57.974H554.06v-10.698h30.271l1.652,15.211
		c4.512-11.146,13.254-17.011,22.582-17.011c3.768,0,6.022,0.3,10.547,1.201l-2.566,13.711c-3.914-1.062-6.328-1.364-9.645-1.364
		c-9.927,0-18.06,10.09-20.771,21.082v35.842h22.131L608.259,368.008L608.259,368.008z"/>
	<path fill="#303031" d="M653.915,333.069c1.207,17.613,10.688,25.453,22.74,25.453c7.225,0,14.303-1.822,21.088-7.383l6.315,9.188
		c-7.383,5.859-17.461,9.48-27.715,9.48c-23.631,0-36.879-16.711-36.879-41.402c0-23.947,13.547-41.562,34.617-41.562
		c20.789,0,33.287,14.912,33.287,39.146c0,2.719-0.146,5.268-0.312,7.077h-53.143V333.069z M653.915,322.827h40.055
		c-0.293-16.412-7.522-24.996-19.887-24.996C663.243,297.831,654.97,305.812,653.915,322.827z"/>
	<path fill="#303031" d="M761.435,362.278v36.592l-24.094,2.555v-113.38h21.388l1.043,8.877c6.479-8.278,14.612-11.59,22.137-11.59
		c20.777,0,29.221,16.424,29.221,42.469c0,24.697-11.303,42.757-30.715,42.757C772.579,370.558,766.251,367.851,761.435,362.278z
		 M786.278,328.094c0-19.881-4.523-24.995-12.199-24.995c-5.115,0-9.188,3.457-12.646,9.188v33.58
		c3.306,4.816,6.476,7.078,11.449,7.078C781.31,352.944,786.278,346.013,786.278,328.094z"/>
	<path fill="#303031" d="M852.278,288.045v54.662c0,7.676,3.012,10.084,7.991,10.084c4.816,0,10.091-3.312,13.406-8.578v-56.168
		h24.07v79.963h-21.07l-1.055-9.352c-5.42,7.84-14.918,11.899-24.539,11.899c-15.527,0-22.898-9.633-22.898-24.838v-57.674
		L852.278,288.045L852.278,288.045z M842.493,264.25l32.379-21.681l10.688,17.912l-35.836,15.974L842.493,264.25z"/>
	<path fill="#303031" d="M948.817,296.185c4.979-6.634,12.504-10.853,20.332-10.853c20.776,0,29.659,16.424,29.659,42.469
		c0,24.697-11.284,42.757-32.062,42.757c-7.992,0-15.06-3.451-19.723-9.779l-0.896,7.229H924.73V256.282l24.088-2.561
		L948.817,296.185L948.817,296.185z M973.979,328.094c0-19.881-4.97-24.995-12.511-24.995c-5.114,0-9.176,3.457-12.649,9.188v33.58
		c3.022,4.676,6.479,7.23,11.448,7.23C968.704,353.097,973.979,346.013,973.979,328.094z"/>
	<path fill="#303031" d="M1053.97,342.854c0,6.321,3.902,8.729,10.242,8.729c4.055,0,7.979-1.043,11.291-2.408l5.713,16.113
		c-5.414,2.864-12.949,5.269-23.186,5.269c-19.729,0-28.154-12.035-28.154-30.861v-67.014h-23.496v-16.4h47.59V342.854
		L1053.97,342.854z"/>
	<path fill="#303031" d="M1171.509,368.008h-67.008v-16.424h22.576v-47.127h-21.826v-16.412h45.938v63.539h20.319V368.008
		L1171.509,368.008z M1124.833,259.575c0-7.664,6.022-13.547,14.303-13.547c8.291,0,14.314,5.883,14.314,13.547
		c0,7.682-6.023,13.559-14.314,13.559C1130.855,273.133,1124.833,267.256,1124.833,259.575z"/>
	<path fill="#303031" d="M1251.021,345.562l10.852,15.362c-7.535,6.019-17.924,9.634-29.66,9.634
		c-26.062,0-41.555-17.004-41.555-42.013c0-24.989,16.102-43.213,41.858-43.213c12.188,0,21.668,3.614,29.355,10.084l-10.396,14.461
		c-5.414-4.219-11.883-6.022-17.461-6.022c-10.688,0-18.069,6.778-18.069,24.69c0,17.619,7.979,23.039,18.069,23.039
		C1239.442,351.584,1245.454,349.78,1251.021,345.562z"/>
	<path fill="#303031" d="M1355.845,327.801c0,26.796-14.461,42.757-38.994,42.757c-24.545,0-39.018-15.656-39.018-42.615
		c0-25.447,14.473-42.609,39.018-42.609C1341.536,285.333,1355.845,302.19,1355.845,327.801z M1302.688,327.942
		c0,17.619,4.513,25.002,14.162,25.002c9.627,0,14.14-7.383,14.14-25.144c0-17.168-4.513-24.702-14.14-24.702
		C1307.2,303.099,1302.688,310.633,1302.688,327.942z"/>
	<path fill="#303031" d="M335.106,363.942c-5.566,3.604-14.005,5.865-21.832,5.865c-17.461,0-27.101-10.084-27.101-24.539v-39.838
		h-18.088v-10.535h18.088v-24.17l13.846-1.658v25.828h27.258l-1.664,10.535H300.02v39.68c0,8.883,4.219,13.254,14.754,13.254
		c5.87,0,11.004-1.5,15.059-3.914L335.106,363.942z"/>
</g>
<g>
	<g>
		
			<line fill="none" stroke="#403D3A" stroke-width="1.0638" stroke-miterlimit="10" x1="1319.811" y1="242.208" x2="1220.271" y2="225.842"/>
		
			<line fill="none" stroke="#403D3A" stroke-width="1.0638" stroke-miterlimit="10" x1="1142.364" y1="258.567" x2="1220.271" y2="225.842"/>
	</g>
</g>
<path fill="#E72F6C" stroke="#303031" stroke-width="1.0638" stroke-miterlimit="10" d="M1334.763,242.208
	c0,8.273-6.797,14.953-14.953,14.953c-8.145,0-14.952-6.68-14.952-14.953c0-8.285,6.809-14.953,14.952-14.953
	C1327.966,227.254,1334.763,233.922,1334.763,242.208z"/>
<path fill="#B4CC05" stroke="#303031" stroke-width="1.0638" stroke-miterlimit="10" d="M1242.936,225.842
	c0,12.545-10.324,22.67-22.664,22.67s-22.677-10.125-22.677-22.67c0-12.551,10.337-22.67,22.677-22.67
	S1242.936,213.292,1242.936,225.842z"/>
<text transform="matrix(1 0 0 1 11.0811 260.6084)" fill="#323232" font-family="'OpenSans'" font-size="70.961">beta</text>
</svg>
